<svg xmlns="http://www.w3.org/2000/svg" viewBox="0 0 916 245" role="img" aria-labelledby="title desc">
<title id="title">Manyingo</title>
<desc id="desc">Flat Little Ink Spirit mascot beside the Manyingo wordmark.</desc>
<g transform="translate(10 8)">
  <path fill="#12314f" d="M105 7c-9 31-47 45-70 79C12 119 9 167 34 198c24 30 69 38 108 23 43-16 68-57 61-99-5-31-24-51-43-68-18-16-37-28-55-47Z"/>
  <path fill="#147783" d="M105 7c-8 28-37 42-59 68-14 17-24 39-26 61 17-24 43-39 72-40 36-2 70 15 91 43-1-37-24-60-46-80-13-12-25-28-32-52Z"/>
  <path fill="#cdd6d2" d="M42 106c11-25 36-40 66-40 33 0 60 18 70 46 8 24 2 52-16 70-16 17-41 25-67 21-25-3-47-18-57-39-9-19-8-40 4-58Z"/>
  <path fill="#b9c5c2" d="M43 151c18 24 45 35 74 31 25-3 47-17 61-38-1 16-7 30-18 41-16 17-40 24-65 20-24-3-44-16-54-35-4-7-6-13-7-20 3 1 6 1 9 1Z"/>
  <path fill="#d4a85b" d="M21 143c13-13 30-18 43-12 8 4 13 11 14 19 3-6 9-10 16-10 12 0 20 11 18 23-3 15-20 26-49 35 10-15 14-28 10-37-6 12-17 18-29 16-14-2-24-14-23-28Z"/>
  <path fill="none" stroke="#12314f" stroke-width="7" stroke-linecap="round" d="M36 153c8-10 22-10 28-1 5 7 1 16-7 18-6 2-12-2-12-8"/>
  <circle cx="78" cy="121" r="8" fill="#101820"/><circle cx="139" cy="121" r="8" fill="#101820"/>
  <circle cx="75" cy="118" r="2.2" fill="#fff"/><circle cx="136" cy="118" r="2.2" fill="#fff"/>
  <path d="M96 143c8 8 17 8 25 0" fill="none" stroke="#182735" stroke-width="5" stroke-linecap="round"/>
  <ellipse cx="200" cy="164" rx="13" ry="18" fill="#12314f"/>
  <path fill="#147783" d="M122 0c12-2 24 6 27 18 2 10-3 21-12 25-10 4-21-1-24-11-3-11 2-23 9-32Z"/>
  <circle cx="108" cy="50" r="8" fill="#147783"/>
</g>
<text x="236" y="174" fill="#58cc02" font-family="Arial Rounded MT Bold, Nunito, ui-rounded, system-ui, sans-serif" font-size="132" font-weight="900" letter-spacing="-6">Manyıngo</text>
<path fill="#d4a85b" d="M633 54c14-13 29-18 45-27-4 15-11 31-23 43-9 8-22 8-28 1-5-6-2-12 6-17Z"/>
</svg>
